<?xml version="1.0" encoding="utf-8"?>
<!-- Generator: Adobe Illustrator 16.0.3, SVG Export Plug-In . SVG Version: 6.00 Build 0)  -->
<!DOCTYPE svg PUBLIC "-//W3C//DTD SVG 1.1//EN" "http://www.w3.org/Graphics/SVG/1.1/DTD/svg11.dtd">
<svg version="1.1" id="Capa_1" xmlns="http://www.w3.org/2000/svg" xmlns:xlink="http://www.w3.org/1999/xlink" x="0px" y="0px"
	 width="2.989px" height="4.507px" viewBox="0 0 2.989 4.507" enable-background="new 0 0 2.989 4.507" xml:space="preserve">
<path fill="#3196C3" d="M1.122,0.288L2.791,1.96c0.084,0.09,0.133,0.192,0.133,0.295L2.866,2.448
	c-0.018,0.04-0.042,0.07-0.076,0.103l-1.674,1.67c-0.208,0.205-0.58,0.25-0.836,0.095c-0.14-0.084-0.215-0.22-0.215-0.349
	C0.066,3.86,0.106,3.756,0.198,3.667l1.41-1.414L0.2,0.838C0.11,0.75,0.069,0.645,0.069,0.537c0-0.128,0.076-0.264,0.215-0.348
	C0.543,0.035,0.915,0.082,1.122,0.288z"/>
</svg>
