<?xml version="1.0" encoding="utf-8"?>
<!-- Generator: Adobe Illustrator 16.0.3, SVG Export Plug-In . SVG Version: 6.00 Build 0)  -->
<!DOCTYPE svg PUBLIC "-//W3C//DTD SVG 1.1//EN" "http://www.w3.org/Graphics/SVG/1.1/DTD/svg11.dtd">
<svg version="1.1" id="Capa_1" xmlns="http://www.w3.org/2000/svg" xmlns:xlink="http://www.w3.org/1999/xlink" x="0px" y="0px"
	 width="44.667px" height="23.009px" viewBox="0 0 44.667 23.009" enable-background="new 0 0 44.667 23.009" xml:space="preserve">
<path fill="#3196C3" d="M44.667,3.543c0,0.805-0.878,1.458-1.959,1.458H1.959C0.877,5.002,0,4.349,0,3.543V1.458
	C0,0.653,0.877,0,1.959,0h40.749c1.081,0,1.959,0.653,1.959,1.458V3.543z"/>
<path fill="#3196C3" d="M35.332,12.347c0,0.805-0.51,1.459-1.14,1.459H10.475c-0.63,0-1.141-0.654-1.141-1.459v-2.085
	c0-0.806,0.511-1.458,1.141-1.458h23.718c0.63,0,1.14,0.652,1.14,1.458V12.347z"/>
<path fill="#3196C3" d="M30.83,21.551c0,0.805-0.316,1.458-0.707,1.458H15.411c-0.391,0-0.707-0.653-0.707-1.458v-2.085
	c0-0.806,0.316-1.459,0.707-1.459h14.712c0.391,0,0.707,0.653,0.707,1.459V21.551z"/>
</svg>
