<?xml version="1.0" encoding="utf-8"?>
<!-- Generator: Adobe Illustrator 16.0.3, SVG Export Plug-In . SVG Version: 6.00 Build 0)  -->
<!DOCTYPE svg PUBLIC "-//W3C//DTD SVG 1.1//EN" "http://www.w3.org/Graphics/SVG/1.1/DTD/svg11.dtd">
<svg version="1.1" id="Capa_1" xmlns="http://www.w3.org/2000/svg" xmlns:xlink="http://www.w3.org/1999/xlink" x="0px" y="0px"
	 width="6.706px" height="2.947px" viewBox="0 0 6.706 2.947" enable-background="new 0 0 6.706 2.947" xml:space="preserve">
<path fill="#3196C3" d="M6.413,1.085l-2.6,1.726c-0.14,0.085-0.3,0.136-0.46,0.136l-0.3-0.06c-0.06-0.017-0.11-0.042-0.16-0.077
	l-2.6-1.726c-0.32-0.214-0.39-0.598-0.15-0.863C0.273,0.077,0.483,0,0.683,0c0.17,0,0.33,0.042,0.47,0.136l2.2,1.453l2.2-1.453
	C5.693,0.042,5.853,0,6.023,0c0.2,0,0.41,0.077,0.54,0.222C6.803,0.487,6.733,0.871,6.413,1.085z"/>
</svg>
