<?xml version="1.0" encoding="utf-8"?>
<!-- Generator: Adobe Illustrator 16.0.3, SVG Export Plug-In . SVG Version: 6.00 Build 0)  -->
<!DOCTYPE svg PUBLIC "-//W3C//DTD SVG 1.1//EN" "http://www.w3.org/Graphics/SVG/1.1/DTD/svg11.dtd">
<svg version="1.1" id="Capa_1" xmlns="http://www.w3.org/2000/svg" xmlns:xlink="http://www.w3.org/1999/xlink" x="0px" y="0px"
	 width="71.953px" height="123.598px" viewBox="0 0 71.953 123.598" enable-background="new 0 0 71.953 123.598"
	 xml:space="preserve">
<path fill="#3196C3" d="M60.748,0H11.203C5.015,0-0.001,5.015-0.001,11.204v101.425c0,6.189,5.016,11.204,11.204,11.204h49.545
	c6.188,0,11.204-5.015,11.204-11.204V11.204C71.952,5.015,66.937,0,60.748,0z M35.976,119.88c-3.275,0-5.928-2.652-5.928-5.928
	c0-3.276,2.652-5.928,5.928-5.928s5.928,2.652,5.928,5.928C41.903,117.228,39.251,119.88,35.976,119.88z M64.958,104.071H6.993
	V15.809h57.965V104.071z"/>
</svg>
