<?xml version="1.0" encoding="utf-8"?>
<!-- Generator: Adobe Illustrator 16.0.3, SVG Export Plug-In . SVG Version: 6.00 Build 0)  -->
<!DOCTYPE svg PUBLIC "-//W3C//DTD SVG 1.1//EN" "http://www.w3.org/Graphics/SVG/1.1/DTD/svg11.dtd">
<svg version="1.1" id="Capa_1" xmlns="http://www.w3.org/2000/svg" xmlns:xlink="http://www.w3.org/1999/xlink" x="0px" y="0px"
	 width="210.66px" height="184.941px" viewBox="0 0 210.66 184.941" enable-background="new 0 0 210.66 184.941"
	 xml:space="preserve">
<path fill="#3196C3" d="M203.383,0H7.277C3.259,0,0,3.516,0,7.863v125.568c0,4.342,3.259,7.863,7.277,7.863h196.106
	c4.018,0,7.277-3.521,7.277-7.863V7.863C210.66,3.516,207.401,0,203.383,0z M200.21,115.342c0,3.315-2.938,5.998-6.559,5.998H17.008
	c-3.62,0-6.554-2.683-6.554-5.998v-95.78c0-3.315,2.934-5.998,6.554-5.998h176.644c3.62,0,6.559,2.682,6.559,5.998V115.342z"/>
<path fill="#3196C3" d="M143.27,177.9c0,3.89-3.15,7.04-7.04,7.04h-61.8c-3.89,0-7.04-3.15-7.04-7.04c0-1.94,0.79-3.7,2.06-4.98
	c1.28-1.27,3.04-2.06,4.98-2.06H94.1V146.3h22.46v24.56h19.67C140.12,170.86,143.27,174.01,143.27,177.9z"/>
</svg>
