<?xml version="1.0" encoding="utf-8"?>
<!-- Generator: Adobe Illustrator 16.0.3, SVG Export Plug-In . SVG Version: 6.00 Build 0)  -->
<!DOCTYPE svg PUBLIC "-//W3C//DTD SVG 1.1//EN" "http://www.w3.org/Graphics/SVG/1.1/DTD/svg11.dtd">
<svg version="1.1" id="Capa_1" xmlns="http://www.w3.org/2000/svg" xmlns:xlink="http://www.w3.org/1999/xlink" x="0px" y="0px"
	 width="62.846px" height="58.439px" viewBox="0 0 62.846 58.439" enable-background="new 0 0 62.846 58.439" xml:space="preserve">
<path fill="#3196C3" d="M61.38,51.63l-20.19-18.5c1.89-3.25,2.97-7.02,2.97-11.05C44.16,9.89,34.28,0,22.08,0C9.89,0,0,9.89,0,22.08
	c0,12.2,9.89,22.08,22.08,22.08c5.42,0,10.38-1.95,14.22-5.2l19.94,18.28c1.72,1.58,4.26,1.6,5.68,0.05
	C63.34,55.74,63.1,53.21,61.38,51.63z M5.41,22.08c0-9.21,7.46-16.67,16.67-16.67s16.68,7.46,16.68,16.67c0,3.69-1.2,7.11-3.24,9.87
	c-0.39,0.53-0.81,1.04-1.27,1.52c-3.04,3.26-7.37,5.29-12.17,5.29C12.87,38.76,5.41,31.29,5.41,22.08z"/>
</svg>
