<?xml version="1.0" encoding="utf-8"?>
<!-- Generator: Adobe Illustrator 16.0.3, SVG Export Plug-In . SVG Version: 6.00 Build 0)  -->
<!DOCTYPE svg PUBLIC "-//W3C//DTD SVG 1.1//EN" "http://www.w3.org/Graphics/SVG/1.1/DTD/svg11.dtd">
<svg version="1.1" id="Capa_1" xmlns="http://www.w3.org/2000/svg" xmlns:xlink="http://www.w3.org/1999/xlink" x="0px" y="0px"
	 width="40.757px" height="37.861px" viewBox="0 0 40.757 37.861" enable-background="new 0 0 40.757 37.861" xml:space="preserve">
<path fill="#3196C3" d="M36.551,23.264l-2.57-1.45c0.11-0.73,0.18-1.49,0.18-2.27c0-1.03-0.11-2.04-0.31-3l2.82-1.48
	c1.06-0.55,1.59-1.65,1.17-2.46l-2.54-4.86c-0.41-0.8-1.62-1-2.69-0.44l-3.13,1.63c-1.51-1.37-3.31-2.43-5.29-3.06v-3.68
	c0-1.2-0.74-2.18-1.63-2.18h-5.5c-0.9,0-1.63,0.98-1.63,2.18v3.66c-1.87,0.61-3.57,1.58-5.01,2.82l-3.1-1.72
	c-1.05-0.59-2.25-0.41-2.7,0.38l-2.66,4.79c-0.45,0.79,0.05,1.89,1.09,2.48l2.81,1.56c-0.27,1.08-0.41,2.21-0.41,3.38
	c0,0.64,0.04,1.27,0.13,1.88l-2.64,1.38c-1.06,0.55-1.58,1.66-1.17,2.46l2.55,4.85c0.41,0.81,1.61,1.01,2.68,0.45l2.32-1.22
	c1.65,1.77,3.75,3.11,6.11,3.88v2.45c0,1.19,0.73,2.17,1.63,2.17h5.5c0.89,0,1.63-0.98,1.63-2.17v-2.46
	c2.23-0.71,4.23-1.96,5.82-3.58l2.29,1.27c1.04,0.59,2.25,0.43,2.68-0.36l2.68-4.79C38.101,24.964,37.611,23.844,36.551,23.264z
	 M19.811,26.494c-4.18,0-7.57-3.39-7.57-7.56c0-4.18,3.39-7.57,7.57-7.57c4.18,0,7.56,3.39,7.56,7.57
	C27.371,23.104,23.991,26.494,19.811,26.494z"/>
</svg>
